<mxfile host="Electron" modified="2024-06-11T11:21:50.471Z" agent="Mozilla/5.0 (Windows NT 10.0; Win64; x64) AppleWebKit/537.36 (KHTML, like Gecko) draw.io/24.4.13 Chrome/124.0.6367.207 Electron/30.0.6 Safari/537.36" etag="Hze-WPlaHC1Cj_5wbNGj" version="24.4.13" type="device" pages="2">
  <diagram name="Page-1" id="9f46799a-70d6-7492-0946-bef42562c5a5">
    <mxGraphModel dx="3282" dy="2124" grid="1" gridSize="10" guides="1" tooltips="1" connect="1" arrows="1" fold="1" page="1" pageScale="1" pageWidth="1100" pageHeight="850" background="none" math="0" shadow="0">
      <root>
        <mxCell id="0" />
        <mxCell id="1" parent="0" />
        <mxCell id="78961159f06e98e8-17" value="Hotel" style="swimlane;html=1;fontStyle=1;align=center;verticalAlign=top;childLayout=stackLayout;horizontal=1;startSize=26;horizontalStack=0;resizeParent=1;resizeLast=0;collapsible=1;marginBottom=0;swimlaneFillColor=#ffffff;rounded=0;shadow=0;comic=0;labelBackgroundColor=none;strokeWidth=1;fillColor=#a20025;fontFamily=Verdana;fontSize=14;strokeColor=#6F0000;fontColor=#ffffff;" parent="1" vertex="1">
          <mxGeometry x="280" y="-190" width="160" height="307" as="geometry" />
        </mxCell>
        <mxCell id="78961159f06e98e8-21" value="&lt;span style=&quot;text-align: center; font-size: 14px;&quot;&gt;&lt;u&gt;Hotel _ID&lt;/u&gt;&lt;/span&gt;: int (PK)" style="text;html=1;strokeColor=#6F0000;fillColor=#a20025;align=left;verticalAlign=top;spacingLeft=4;spacingRight=4;whiteSpace=wrap;overflow=hidden;rotatable=0;points=[[0,0.5],[1,0.5]];portConstraint=eastwest;fontSize=14;fontColor=#ffffff;" parent="78961159f06e98e8-17" vertex="1">
          <mxGeometry y="26" width="160" height="26" as="geometry" />
        </mxCell>
        <mxCell id="78961159f06e98e8-25" value="&lt;span style=&quot;text-align: center; font-size: 14px;&quot;&gt;Name&amp;nbsp;&lt;/span&gt;: varchar" style="text;html=1;strokeColor=#6F0000;fillColor=#a20025;align=left;verticalAlign=top;spacingLeft=4;spacingRight=4;whiteSpace=wrap;overflow=hidden;rotatable=0;points=[[0,0.5],[1,0.5]];portConstraint=eastwest;fontSize=14;fontColor=#ffffff;" parent="78961159f06e98e8-17" vertex="1">
          <mxGeometry y="52" width="160" height="26" as="geometry" />
        </mxCell>
        <mxCell id="78961159f06e98e8-33" value="&lt;span style=&quot;text-align: center; font-size: 14px;&quot;&gt;Country&lt;/span&gt;: varchar" style="text;html=1;strokeColor=#6F0000;fillColor=#a20025;align=left;verticalAlign=top;spacingLeft=4;spacingRight=4;whiteSpace=wrap;overflow=hidden;rotatable=0;points=[[0,0.5],[1,0.5]];portConstraint=eastwest;fontSize=14;fontColor=#ffffff;" parent="78961159f06e98e8-17" vertex="1">
          <mxGeometry y="78" width="160" height="26" as="geometry" />
        </mxCell>
        <mxCell id="78961159f06e98e8-24" value="&lt;span style=&quot;text-align: center; font-size: 14px;&quot;&gt;State&amp;nbsp;&lt;/span&gt;: varchar" style="text;html=1;strokeColor=#6F0000;fillColor=#a20025;align=left;verticalAlign=top;spacingLeft=4;spacingRight=4;whiteSpace=wrap;overflow=hidden;rotatable=0;points=[[0,0.5],[1,0.5]];portConstraint=eastwest;fontSize=14;fontColor=#ffffff;" parent="78961159f06e98e8-17" vertex="1">
          <mxGeometry y="104" width="160" height="26" as="geometry" />
        </mxCell>
        <mxCell id="78961159f06e98e8-26" value="&lt;span style=&quot;text-align: center; font-size: 14px;&quot;&gt;City&lt;/span&gt;: varchar" style="text;html=1;strokeColor=#6F0000;fillColor=#a20025;align=left;verticalAlign=top;spacingLeft=4;spacingRight=4;whiteSpace=wrap;overflow=hidden;rotatable=0;points=[[0,0.5],[1,0.5]];portConstraint=eastwest;fontSize=14;fontColor=#ffffff;" parent="78961159f06e98e8-17" vertex="1">
          <mxGeometry y="130" width="160" height="26" as="geometry" />
        </mxCell>
        <mxCell id="78961159f06e98e8-37" value="&lt;span style=&quot;text-align: center; font-size: 14px;&quot;&gt;Zip_Code&lt;/span&gt;: varchar" style="text;html=1;strokeColor=#6F0000;fillColor=#a20025;align=left;verticalAlign=top;spacingLeft=4;spacingRight=4;whiteSpace=wrap;overflow=hidden;rotatable=0;points=[[0,0.5],[1,0.5]];portConstraint=eastwest;fontSize=14;fontColor=#ffffff;" parent="78961159f06e98e8-17" vertex="1">
          <mxGeometry y="156" width="160" height="26" as="geometry" />
        </mxCell>
        <mxCell id="78961159f06e98e8-23" value="&lt;span style=&quot;text-align: center; font-size: 14px;&quot;&gt;Rating&amp;nbsp;&lt;/span&gt;: float" style="text;html=1;strokeColor=#6F0000;fillColor=#a20025;align=left;verticalAlign=top;spacingLeft=4;spacingRight=4;whiteSpace=wrap;overflow=hidden;rotatable=0;points=[[0,0.5],[1,0.5]];portConstraint=eastwest;fontSize=14;fontColor=#ffffff;" parent="78961159f06e98e8-17" vertex="1">
          <mxGeometry y="182" width="160" height="26" as="geometry" />
        </mxCell>
        <mxCell id="78961159f06e98e8-36" value="&lt;span style=&quot;text-align: center; font-size: 14px;&quot;&gt;Description&lt;/span&gt;: varchar" style="text;html=1;strokeColor=#6F0000;fillColor=#a20025;align=left;verticalAlign=top;spacingLeft=4;spacingRight=4;whiteSpace=wrap;overflow=hidden;rotatable=0;points=[[0,0.5],[1,0.5]];portConstraint=eastwest;fontSize=14;fontColor=#ffffff;" parent="78961159f06e98e8-17" vertex="1">
          <mxGeometry y="208" width="160" height="26" as="geometry" />
        </mxCell>
        <mxCell id="78961159f06e98e8-30" value="&lt;span style=&quot;font-family: Helvetica; font-size: 14px; text-wrap: wrap;&quot;&gt;Transportation&lt;/span&gt;" style="swimlane;html=1;fontStyle=1;align=center;verticalAlign=top;childLayout=stackLayout;horizontal=1;startSize=30;horizontalStack=0;resizeParent=1;resizeLast=0;collapsible=1;marginBottom=0;swimlaneFillColor=#ffffff;rounded=0;shadow=0;comic=0;labelBackgroundColor=none;strokeWidth=1;fillColor=#a20025;fontFamily=Verdana;fontSize=14;strokeColor=#6F0000;fontColor=#ffffff;" parent="1" vertex="1">
          <mxGeometry x="-300" y="-170" width="160" height="220" as="geometry" />
        </mxCell>
        <mxCell id="78961159f06e98e8-31" value="&lt;span style=&quot;text-align: center;&quot;&gt;&lt;u&gt;Transport_ID&amp;nbsp;&lt;/u&gt;:&lt;/span&gt;&amp;nbsp;int&amp;nbsp; (PK)" style="text;html=1;strokeColor=#6F0000;fillColor=#a20025;align=left;verticalAlign=top;spacingLeft=4;spacingRight=4;whiteSpace=wrap;overflow=hidden;rotatable=0;points=[[0,0.5],[1,0.5]];portConstraint=eastwest;fontSize=14;fontColor=#ffffff;" parent="78961159f06e98e8-30" vertex="1">
          <mxGeometry y="30" width="160" height="26" as="geometry" />
        </mxCell>
        <mxCell id="78961159f06e98e8-32" value="&lt;span style=&quot;font-size: 14px; text-align: center;&quot;&gt;Type&amp;nbsp;&lt;/span&gt;: varchar" style="text;html=1;strokeColor=#6F0000;fillColor=#a20025;align=left;verticalAlign=top;spacingLeft=4;spacingRight=4;whiteSpace=wrap;overflow=hidden;rotatable=0;points=[[0,0.5],[1,0.5]];portConstraint=eastwest;fontSize=14;fontColor=#ffffff;" parent="78961159f06e98e8-30" vertex="1">
          <mxGeometry y="56" width="160" height="28" as="geometry" />
        </mxCell>
        <mxCell id="78961159f06e98e8-34" value="&lt;span style=&quot;font-size: 14px; text-align: center;&quot;&gt;Schedule&amp;nbsp;&lt;/span&gt;: float" style="text;html=1;strokeColor=#6F0000;fillColor=#a20025;align=left;verticalAlign=top;spacingLeft=4;spacingRight=4;whiteSpace=wrap;overflow=hidden;rotatable=0;points=[[0,0.5],[1,0.5]];portConstraint=eastwest;fontSize=14;fontColor=#ffffff;" parent="78961159f06e98e8-30" vertex="1">
          <mxGeometry y="84" width="160" height="26" as="geometry" />
        </mxCell>
        <mxCell id="78961159f06e98e8-39" value="&lt;span style=&quot;font-size: 14px; text-align: center;&quot;&gt;Price&amp;nbsp;&lt;/span&gt;: float" style="text;html=1;strokeColor=#6F0000;fillColor=#a20025;align=left;verticalAlign=top;spacingLeft=4;spacingRight=4;whiteSpace=wrap;overflow=hidden;rotatable=0;points=[[0,0.5],[1,0.5]];portConstraint=eastwest;fontSize=14;fontColor=#ffffff;" parent="78961159f06e98e8-30" vertex="1">
          <mxGeometry y="110" width="160" height="26" as="geometry" />
        </mxCell>
        <mxCell id="78961159f06e98e8-40" value="&lt;span style=&quot;font-size: 14px; text-align: center;&quot;&gt;Contact_info&amp;nbsp;&lt;/span&gt;: varchar" style="text;html=1;strokeColor=#6F0000;fillColor=#a20025;align=left;verticalAlign=top;spacingLeft=4;spacingRight=4;whiteSpace=wrap;overflow=hidden;rotatable=0;points=[[0,0.5],[1,0.5]];portConstraint=eastwest;fontSize=14;fontColor=#ffffff;" parent="78961159f06e98e8-30" vertex="1">
          <mxGeometry y="136" width="160" height="44" as="geometry" />
        </mxCell>
        <mxCell id="daP8iGCR7o7oa7H0C6Kk-4" value="&lt;span style=&quot;text-align: center; font-size: 14px;&quot;&gt;Hotel _ID&lt;/span&gt;: int (FK)" style="text;html=1;strokeColor=#6F0000;fillColor=#a20025;align=left;verticalAlign=top;spacingLeft=4;spacingRight=4;whiteSpace=wrap;overflow=hidden;rotatable=0;points=[[0,0.5],[1,0.5]];portConstraint=eastwest;fontSize=14;fontColor=#ffffff;" parent="78961159f06e98e8-30" vertex="1">
          <mxGeometry y="180" width="160" height="26" as="geometry" />
        </mxCell>
        <mxCell id="78961159f06e98e8-43" value="Payment" style="swimlane;html=1;fontStyle=1;align=center;verticalAlign=top;childLayout=stackLayout;horizontal=1;startSize=26;horizontalStack=0;resizeParent=1;resizeLast=0;collapsible=1;marginBottom=0;swimlaneFillColor=#ffffff;rounded=0;shadow=0;comic=0;labelBackgroundColor=none;strokeWidth=1;fillColor=#a20025;fontFamily=Verdana;fontSize=14;strokeColor=#6F0000;fontColor=#ffffff;" parent="1" vertex="1">
          <mxGeometry x="760" y="-210" width="200" height="140" as="geometry" />
        </mxCell>
        <mxCell id="78961159f06e98e8-44" value="&lt;span style=&quot;font-size: 14px; text-align: center; text-decoration-line: underline;&quot;&gt;Payment_ID&lt;/span&gt;&amp;nbsp;: int (PK)" style="text;html=1;strokeColor=#6F0000;fillColor=#a20025;align=left;verticalAlign=top;spacingLeft=4;spacingRight=4;whiteSpace=wrap;overflow=hidden;rotatable=0;points=[[0,0.5],[1,0.5]];portConstraint=eastwest;fontSize=14;fontColor=#ffffff;" parent="78961159f06e98e8-43" vertex="1">
          <mxGeometry y="26" width="200" height="26" as="geometry" />
        </mxCell>
        <mxCell id="78961159f06e98e8-45" value="&lt;span style=&quot;font-size: 14px; text-align: center;&quot;&gt;Amount :&lt;/span&gt;&amp;nbsp;float" style="text;html=1;strokeColor=#6F0000;fillColor=#a20025;align=left;verticalAlign=top;spacingLeft=4;spacingRight=4;whiteSpace=wrap;overflow=hidden;rotatable=0;points=[[0,0.5],[1,0.5]];portConstraint=eastwest;fontSize=14;fontColor=#ffffff;" parent="78961159f06e98e8-43" vertex="1">
          <mxGeometry y="52" width="200" height="26" as="geometry" />
        </mxCell>
        <mxCell id="78961159f06e98e8-49" value="&lt;span style=&quot;font-size: 14px; text-align: center;&quot;&gt;Payment_Date :&lt;/span&gt;&amp;nbsp;date" style="text;html=1;strokeColor=#6F0000;fillColor=#a20025;align=left;verticalAlign=top;spacingLeft=4;spacingRight=4;whiteSpace=wrap;overflow=hidden;rotatable=0;points=[[0,0.5],[1,0.5]];portConstraint=eastwest;fontSize=14;fontColor=#ffffff;" parent="78961159f06e98e8-43" vertex="1">
          <mxGeometry y="78" width="200" height="26" as="geometry" />
        </mxCell>
        <mxCell id="78961159f06e98e8-50" value="&lt;span style=&quot;font-size: 14px; text-align: center;&quot;&gt;Payment_Method&amp;nbsp;&lt;/span&gt;:&amp;nbsp; varchar" style="text;html=1;strokeColor=#6F0000;fillColor=#a20025;align=left;verticalAlign=top;spacingLeft=4;spacingRight=4;whiteSpace=wrap;overflow=hidden;rotatable=0;points=[[0,0.5],[1,0.5]];portConstraint=eastwest;fontSize=14;fontColor=#ffffff;" parent="78961159f06e98e8-43" vertex="1">
          <mxGeometry y="104" width="200" height="26" as="geometry" />
        </mxCell>
        <mxCell id="78961159f06e98e8-56" value="Event" style="swimlane;html=1;fontStyle=1;align=center;verticalAlign=top;childLayout=stackLayout;horizontal=1;startSize=26;horizontalStack=0;resizeParent=1;resizeLast=0;collapsible=1;marginBottom=0;swimlaneFillColor=#ffffff;rounded=0;shadow=0;comic=0;labelBackgroundColor=default;strokeWidth=1;fillColor=#a20025;fontFamily=Verdana;fontSize=14;strokeColor=#6F0000;fontColor=#ffffff;" parent="1" vertex="1">
          <mxGeometry x="-540" y="-300" width="160" height="240" as="geometry" />
        </mxCell>
        <mxCell id="78961159f06e98e8-57" value="&lt;u&gt;Event_ID&lt;/u&gt;: int (PK)" style="text;html=1;strokeColor=#6F0000;fillColor=#a20025;align=left;verticalAlign=top;spacingLeft=4;spacingRight=4;whiteSpace=wrap;overflow=hidden;rotatable=0;points=[[0,0.5],[1,0.5]];portConstraint=eastwest;fontSize=14;fontColor=#ffffff;" parent="78961159f06e98e8-56" vertex="1">
          <mxGeometry y="26" width="160" height="26" as="geometry" />
        </mxCell>
        <mxCell id="78961159f06e98e8-58" value="&lt;span style=&quot;font-size: 14px; text-align: center;&quot;&gt;Name :&amp;nbsp;&lt;/span&gt;varchar" style="text;html=1;strokeColor=#6F0000;fillColor=#a20025;align=left;verticalAlign=top;spacingLeft=4;spacingRight=4;whiteSpace=wrap;overflow=hidden;rotatable=0;points=[[0,0.5],[1,0.5]];portConstraint=eastwest;fontSize=14;fontColor=#ffffff;" parent="78961159f06e98e8-56" vertex="1">
          <mxGeometry y="52" width="160" height="26" as="geometry" />
        </mxCell>
        <mxCell id="78961159f06e98e8-59" value="&lt;font style=&quot;font-size: 14px;&quot;&gt;&lt;span style=&quot;text-align: center;&quot;&gt;Location :&lt;/span&gt;&amp;nbsp;&lt;/font&gt;varchar" style="text;html=1;strokeColor=#6F0000;fillColor=#a20025;align=left;verticalAlign=top;spacingLeft=4;spacingRight=4;whiteSpace=wrap;overflow=hidden;rotatable=0;points=[[0,0.5],[1,0.5]];portConstraint=eastwest;fontSize=14;fontColor=#ffffff;" parent="78961159f06e98e8-56" vertex="1">
          <mxGeometry y="78" width="160" height="26" as="geometry" />
        </mxCell>
        <mxCell id="78961159f06e98e8-60" value="&lt;span style=&quot;font-size: 14px; text-align: center;&quot;&gt;Description :&lt;/span&gt;&amp;nbsp;varchar" style="text;html=1;strokeColor=#6F0000;fillColor=#a20025;align=left;verticalAlign=top;spacingLeft=4;spacingRight=4;whiteSpace=wrap;overflow=hidden;rotatable=0;points=[[0,0.5],[1,0.5]];portConstraint=eastwest;fontSize=14;fontColor=#ffffff;" parent="78961159f06e98e8-56" vertex="1">
          <mxGeometry y="104" width="160" height="30" as="geometry" />
        </mxCell>
        <mxCell id="78961159f06e98e8-61" value="&lt;span style=&quot;font-size: 14px; text-align: center;&quot;&gt;Start_date&amp;nbsp;&lt;/span&gt;: date" style="text;html=1;strokeColor=#6F0000;fillColor=#a20025;align=left;verticalAlign=top;spacingLeft=4;spacingRight=4;whiteSpace=wrap;overflow=hidden;rotatable=0;points=[[0,0.5],[1,0.5]];portConstraint=eastwest;fontSize=14;fontColor=#ffffff;" parent="78961159f06e98e8-56" vertex="1">
          <mxGeometry y="134" width="160" height="26" as="geometry" />
        </mxCell>
        <mxCell id="78961159f06e98e8-62" value="&lt;span style=&quot;font-size: 14px; text-align: center;&quot;&gt;End_date&amp;nbsp;&lt;/span&gt;: date" style="text;html=1;strokeColor=#6F0000;fillColor=#a20025;align=left;verticalAlign=top;spacingLeft=4;spacingRight=4;whiteSpace=wrap;overflow=hidden;rotatable=0;points=[[0,0.5],[1,0.5]];portConstraint=eastwest;fontSize=14;fontColor=#ffffff;" parent="78961159f06e98e8-56" vertex="1">
          <mxGeometry y="160" width="160" height="30" as="geometry" />
        </mxCell>
        <mxCell id="AnVdaM48TsKzXqkaSUUS-56" value="&lt;span style=&quot;text-align: center; font-size: 14px;&quot;&gt;&lt;u&gt;Hotel _ID&lt;/u&gt;&lt;/span&gt;: int&amp;nbsp;&amp;nbsp;(FK)" style="text;html=1;strokeColor=#6F0000;fillColor=#a20025;align=left;verticalAlign=top;spacingLeft=4;spacingRight=4;whiteSpace=wrap;overflow=hidden;rotatable=0;points=[[0,0.5],[1,0.5]];portConstraint=eastwest;fontSize=14;fontColor=#ffffff;" parent="78961159f06e98e8-56" vertex="1">
          <mxGeometry y="190" width="160" height="26" as="geometry" />
        </mxCell>
        <mxCell id="78961159f06e98e8-69" value="Room" style="swimlane;html=1;fontStyle=1;align=center;verticalAlign=top;childLayout=stackLayout;horizontal=1;startSize=26;horizontalStack=0;resizeParent=1;resizeLast=0;collapsible=1;marginBottom=0;swimlaneFillColor=#ffffff;rounded=0;shadow=0;comic=0;labelBackgroundColor=none;strokeWidth=1;fillColor=#a20025;fontFamily=Verdana;fontSize=14;strokeColor=#6F0000;fontColor=#ffffff;" parent="1" vertex="1">
          <mxGeometry x="-290" y="100" width="160" height="230" as="geometry" />
        </mxCell>
        <mxCell id="78961159f06e98e8-70" value="&lt;span style=&quot;font-size: 14px; text-align: center;&quot;&gt;&lt;u&gt;Room_ID&lt;/u&gt;&lt;/span&gt;: int (PK)" style="text;html=1;strokeColor=#6F0000;fillColor=#a20025;align=left;verticalAlign=top;spacingLeft=4;spacingRight=4;whiteSpace=wrap;overflow=hidden;rotatable=0;points=[[0,0.5],[1,0.5]];portConstraint=eastwest;fontSize=14;fontColor=#ffffff;" parent="78961159f06e98e8-69" vertex="1">
          <mxGeometry y="26" width="160" height="26" as="geometry" />
        </mxCell>
        <mxCell id="78961159f06e98e8-71" value="&lt;span style=&quot;font-size: 14px; text-align: center;&quot;&gt;Max_Occupancy&lt;/span&gt;: int" style="text;html=1;strokeColor=#6F0000;fillColor=#a20025;align=left;verticalAlign=top;spacingLeft=4;spacingRight=4;whiteSpace=wrap;overflow=hidden;rotatable=0;points=[[0,0.5],[1,0.5]];portConstraint=eastwest;fontSize=14;fontColor=#ffffff;" parent="78961159f06e98e8-69" vertex="1">
          <mxGeometry y="52" width="160" height="26" as="geometry" />
        </mxCell>
        <mxCell id="78961159f06e98e8-72" value="&lt;span style=&quot;font-size: 14px; text-align: center;&quot;&gt;Price_per_Night&amp;nbsp;&lt;/span&gt;: float" style="text;html=1;strokeColor=#6F0000;fillColor=#a20025;align=left;verticalAlign=top;spacingLeft=4;spacingRight=4;whiteSpace=wrap;overflow=hidden;rotatable=0;points=[[0,0.5],[1,0.5]];portConstraint=eastwest;fontSize=14;fontColor=#ffffff;" parent="78961159f06e98e8-69" vertex="1">
          <mxGeometry y="78" width="160" height="26" as="geometry" />
        </mxCell>
        <mxCell id="78961159f06e98e8-74" value="&lt;span style=&quot;font-size: 14px; text-align: center;&quot;&gt;Availability :&lt;/span&gt;&amp;nbsp;varchar" style="text;html=1;strokeColor=#6F0000;fillColor=#a20025;align=left;verticalAlign=top;spacingLeft=4;spacingRight=4;whiteSpace=wrap;overflow=hidden;rotatable=0;points=[[0,0.5],[1,0.5]];portConstraint=eastwest;fontSize=14;fontColor=#ffffff;" parent="78961159f06e98e8-69" vertex="1">
          <mxGeometry y="104" width="160" height="26" as="geometry" />
        </mxCell>
        <mxCell id="78961159f06e98e8-75" value="&lt;span style=&quot;font-size: 14px; text-align: center;&quot;&gt;Description&lt;/span&gt;: varchar" style="text;html=1;strokeColor=#6F0000;fillColor=#a20025;align=left;verticalAlign=top;spacingLeft=4;spacingRight=4;whiteSpace=wrap;overflow=hidden;rotatable=0;points=[[0,0.5],[1,0.5]];portConstraint=eastwest;fontSize=14;fontColor=#ffffff;" parent="78961159f06e98e8-69" vertex="1">
          <mxGeometry y="130" width="160" height="26" as="geometry" />
        </mxCell>
        <mxCell id="78961159f06e98e8-76" value="&lt;span style=&quot;font-size: 14px; text-align: center;&quot;&gt;Type&amp;nbsp;&lt;/span&gt;: varchar" style="text;html=1;strokeColor=#6F0000;fillColor=#a20025;align=left;verticalAlign=top;spacingLeft=4;spacingRight=4;whiteSpace=wrap;overflow=hidden;rotatable=0;points=[[0,0.5],[1,0.5]];portConstraint=eastwest;fontSize=14;fontColor=#ffffff;" parent="78961159f06e98e8-69" vertex="1">
          <mxGeometry y="156" width="160" height="26" as="geometry" />
        </mxCell>
        <mxCell id="daP8iGCR7o7oa7H0C6Kk-1" value="&lt;span style=&quot;text-align: center; font-size: 14px;&quot;&gt;Hotel _ID&lt;/span&gt;: int (FK)" style="text;html=1;strokeColor=#6F0000;fillColor=#a20025;align=left;verticalAlign=top;spacingLeft=4;spacingRight=4;whiteSpace=wrap;overflow=hidden;rotatable=0;points=[[0,0.5],[1,0.5]];portConstraint=eastwest;fontSize=14;fontColor=#ffffff;" parent="78961159f06e98e8-69" vertex="1">
          <mxGeometry y="182" width="160" height="38" as="geometry" />
        </mxCell>
        <mxCell id="xuSP38dfbPnXMIdWxUSy-62" style="edgeStyle=orthogonalEdgeStyle;rounded=0;orthogonalLoop=1;jettySize=auto;html=1;exitX=0.25;exitY=0;exitDx=0;exitDy=0;entryX=0.75;entryY=1;entryDx=0;entryDy=0;fillColor=#a20025;strokeColor=#6F0000;" parent="1" source="78961159f06e98e8-82" target="78961159f06e98e8-17" edge="1">
          <mxGeometry relative="1" as="geometry" />
        </mxCell>
        <mxCell id="daP8iGCR7o7oa7H0C6Kk-13" style="edgeStyle=orthogonalEdgeStyle;rounded=0;orthogonalLoop=1;jettySize=auto;html=1;exitX=0.75;exitY=0;exitDx=0;exitDy=0;fillColor=#a20025;strokeColor=#6F0000;" parent="1" source="78961159f06e98e8-82" target="78961159f06e98e8-45" edge="1">
          <mxGeometry relative="1" as="geometry" />
        </mxCell>
        <mxCell id="78961159f06e98e8-82" value="Booking" style="swimlane;html=1;fontStyle=1;align=center;verticalAlign=top;childLayout=stackLayout;horizontal=1;startSize=26;horizontalStack=0;resizeParent=1;resizeLast=0;collapsible=1;marginBottom=0;swimlaneFillColor=#ffffff;rounded=0;shadow=0;comic=0;labelBackgroundColor=none;strokeWidth=1;fillColor=#a20025;fontFamily=Verdana;fontSize=14;strokeColor=#6F0000;fontColor=#ffffff;" parent="1" vertex="1">
          <mxGeometry x="410" y="300" width="210" height="300" as="geometry" />
        </mxCell>
        <mxCell id="78961159f06e98e8-83" value="&lt;span style=&quot;font-size: 14px; text-align: center; text-decoration-line: underline;&quot;&gt;Booking_ID&amp;nbsp;&lt;/span&gt;: int&amp;nbsp;&lt;span style=&quot;text-align: center;&quot;&gt;(PK)&lt;/span&gt;" style="text;html=1;strokeColor=#6F0000;fillColor=#a20025;align=left;verticalAlign=top;spacingLeft=4;spacingRight=4;whiteSpace=wrap;overflow=hidden;rotatable=0;points=[[0,0.5],[1,0.5]];portConstraint=eastwest;fontSize=14;fontColor=#ffffff;" parent="78961159f06e98e8-82" vertex="1">
          <mxGeometry y="26" width="210" height="26" as="geometry" />
        </mxCell>
        <mxCell id="78961159f06e98e8-84" value="&lt;span style=&quot;font-size: 14px; text-align: center;&quot;&gt;Status&amp;nbsp;&lt;/span&gt;: varchar" style="text;html=1;strokeColor=#6F0000;fillColor=#a20025;align=left;verticalAlign=top;spacingLeft=4;spacingRight=4;whiteSpace=wrap;overflow=hidden;rotatable=0;points=[[0,0.5],[1,0.5]];portConstraint=eastwest;fontSize=14;fontColor=#ffffff;" parent="78961159f06e98e8-82" vertex="1">
          <mxGeometry y="52" width="210" height="26" as="geometry" />
        </mxCell>
        <mxCell id="78961159f06e98e8-85" value="&lt;span style=&quot;font-size: 14px; text-align: center;&quot;&gt;Total_Price&amp;nbsp;&lt;/span&gt;: float" style="text;html=1;strokeColor=#6F0000;fillColor=#a20025;align=left;verticalAlign=top;spacingLeft=4;spacingRight=4;whiteSpace=wrap;overflow=hidden;rotatable=0;points=[[0,0.5],[1,0.5]];portConstraint=eastwest;fontSize=14;fontColor=#ffffff;" parent="78961159f06e98e8-82" vertex="1">
          <mxGeometry y="78" width="210" height="26" as="geometry" />
        </mxCell>
        <mxCell id="78961159f06e98e8-86" value="&lt;span style=&quot;font-size: 14px; text-align: center;&quot;&gt;CheckIN_Date&amp;nbsp;&lt;/span&gt;: date" style="text;html=1;strokeColor=#6F0000;fillColor=#a20025;align=left;verticalAlign=top;spacingLeft=4;spacingRight=4;whiteSpace=wrap;overflow=hidden;rotatable=0;points=[[0,0.5],[1,0.5]];portConstraint=eastwest;fontSize=14;fontColor=#ffffff;" parent="78961159f06e98e8-82" vertex="1">
          <mxGeometry y="104" width="210" height="26" as="geometry" />
        </mxCell>
        <mxCell id="78961159f06e98e8-87" value="&lt;span style=&quot;font-size: 14px; text-align: center;&quot;&gt;CheckOUT_Date&lt;/span&gt;&amp;nbsp;: date&lt;div&gt;&lt;br&gt;&lt;div&gt;&lt;span style=&quot;color: rgba(0, 0, 0, 0); font-family: monospace; font-size: 0px; text-wrap: nowrap;&quot;&gt;%3CmxGraphModel%3E%3Croot%3E%3CmxCell%20id%3D%220%22%2F%3E%3CmxCell%20id%3D%221%22%20parent%3D%220%22%2F%3E%3CmxCell%20id%3D%222%22%20value%3D%22%26lt%3Bspan%20style%3D%26quot%3Btext-align%3A%20center%3B%20font-size%3A%2014px%3B%26quot%3B%26gt%3BRoom%20_ID%26lt%3B%2Fspan%26gt%3B%26lt%3Bu%26gt%3B%3A%26lt%3B%2Fu%26gt%3B%20int%26amp%3Bnbsp%3B%26lt%3Bspan%20style%3D%26quot%3Btext-align%3A%20center%3B%26quot%3B%26gt%3B(FK)%26lt%3B%2Fspan%26gt%3B%22%20style%3D%22text%3Bhtml%3D1%3BstrokeColor%3Dnone%3BfillColor%3Dnone%3Balign%3Dleft%3BverticalAlign%3Dtop%3BspacingLeft%3D4%3BspacingRight%3D4%3BwhiteSpace%3Dwrap%3Boverflow%3Dhidden%3Brotatable%3D0%3Bpoints%3D%5B%5B0%2C0.5%5D%2C%5B1%2C0.5%5D%5D%3BportConstraint%3Deastwest%3BfontSize%3D14%3B%22%20vertex%3D%221%22%20parent%3D%221%22%3E%3CmxGeometry%20x%3D%22120%22%20y%3D%22246%22%20width%3D%22160%22%20height%3D%2226%22%20as%3D%22geometry%22%2F%3E%3C%2FmxCell%3E%3C%2Froot%3E%3C%2FmxGraphModel%3Esss&lt;/span&gt;&lt;span style=&quot;background-color: initial; text-align: center;&quot;&gt;User _ID&lt;/span&gt;&lt;u style=&quot;background-color: initial;&quot;&gt;:&lt;/u&gt;&lt;span style=&quot;background-color: initial;&quot;&gt;&amp;nbsp;int&amp;nbsp;&lt;/span&gt;&lt;span style=&quot;background-color: initial; text-align: center;&quot;&gt;(FK)&lt;/span&gt;&lt;/div&gt;&lt;div&gt;&lt;div&gt;&lt;br&gt;&lt;/div&gt;&lt;/div&gt;&lt;/div&gt;" style="text;html=1;strokeColor=#6F0000;fillColor=#a20025;align=left;verticalAlign=top;spacingLeft=4;spacingRight=4;whiteSpace=wrap;overflow=hidden;rotatable=0;points=[[0,0.5],[1,0.5]];portConstraint=eastwest;fontSize=14;fontColor=#ffffff;" parent="78961159f06e98e8-82" vertex="1">
          <mxGeometry y="130" width="210" height="20" as="geometry" />
        </mxCell>
        <mxCell id="xuSP38dfbPnXMIdWxUSy-41" value="&lt;div style=&quot;text-align: center;&quot;&gt;&lt;br&gt;&lt;/div&gt;&lt;div style=&quot;text-align: center;&quot;&gt;User_Id :int (FK)&lt;/div&gt;&lt;div style=&quot;text-align: center;&quot;&gt;&lt;br&gt;&lt;/div&gt;&lt;div style=&quot;text-align: center;&quot;&gt;&lt;br&gt;&lt;/div&gt;" style="text;html=1;strokeColor=#6F0000;fillColor=#a20025;align=left;verticalAlign=top;spacingLeft=4;spacingRight=4;whiteSpace=wrap;overflow=hidden;rotatable=0;points=[[0,0.5],[1,0.5]];portConstraint=eastwest;fontSize=14;fontColor=#ffffff;" parent="78961159f06e98e8-82" vertex="1">
          <mxGeometry y="150" width="210" height="50" as="geometry" />
        </mxCell>
        <mxCell id="xuSP38dfbPnXMIdWxUSy-43" value="&lt;span style=&quot;text-align: center; font-size: 14px;&quot;&gt;Hotel_ID&lt;/span&gt;&lt;u&gt;:&lt;/u&gt; int&amp;nbsp;&lt;span style=&quot;text-align: center;&quot;&gt;(FK)&lt;/span&gt;" style="text;html=1;strokeColor=#6F0000;fillColor=#a20025;align=left;verticalAlign=top;spacingLeft=4;spacingRight=4;whiteSpace=wrap;overflow=hidden;rotatable=0;points=[[0,0.5],[1,0.5]];portConstraint=eastwest;fontSize=14;fontColor=#ffffff;" parent="78961159f06e98e8-82" vertex="1">
          <mxGeometry y="200" width="210" height="26" as="geometry" />
        </mxCell>
        <mxCell id="daP8iGCR7o7oa7H0C6Kk-14" value="&lt;span style=&quot;text-align: center; font-size: 14px;&quot;&gt;&lt;u&gt;Room _ID&lt;/u&gt;&lt;/span&gt;: int&amp;nbsp;&lt;span style=&quot;text-align: center;&quot;&gt;(FK)&lt;/span&gt;" style="text;html=1;strokeColor=#6F0000;fillColor=#a20025;align=left;verticalAlign=top;spacingLeft=4;spacingRight=4;whiteSpace=wrap;overflow=hidden;rotatable=0;points=[[0,0.5],[1,0.5]];portConstraint=eastwest;fontSize=14;fontColor=#ffffff;" parent="78961159f06e98e8-82" vertex="1">
          <mxGeometry y="226" width="210" height="26" as="geometry" />
        </mxCell>
        <mxCell id="daP8iGCR7o7oa7H0C6Kk-12" value="&lt;span style=&quot;font-size: 14px; text-align: center; text-decoration-line: underline;&quot;&gt;Payment_ID&lt;/span&gt;&amp;nbsp;: int (PK)" style="text;html=1;strokeColor=#6F0000;fillColor=#a20025;align=left;verticalAlign=top;spacingLeft=4;spacingRight=4;whiteSpace=wrap;overflow=hidden;rotatable=0;points=[[0,0.5],[1,0.5]];portConstraint=eastwest;fontSize=14;fontColor=#ffffff;" parent="78961159f06e98e8-82" vertex="1">
          <mxGeometry y="252" width="210" height="34" as="geometry" />
        </mxCell>
        <mxCell id="78961159f06e98e8-95" value="&lt;span style=&quot;font-family: Helvetica; text-wrap: wrap;&quot;&gt;&lt;font style=&quot;font-size: 14px;&quot;&gt;Invoice&lt;/font&gt;&lt;/span&gt;" style="swimlane;html=1;fontStyle=1;align=center;verticalAlign=top;childLayout=stackLayout;horizontal=1;startSize=26;horizontalStack=0;resizeParent=1;resizeLast=0;collapsible=1;marginBottom=0;swimlaneFillColor=#ffffff;rounded=0;shadow=0;comic=0;labelBackgroundColor=none;strokeWidth=1;fillColor=#a20025;fontFamily=Verdana;fontSize=14;strokeColor=#6F0000;fontColor=#ffffff;" parent="1" vertex="1">
          <mxGeometry x="980" y="70" width="160" height="220" as="geometry" />
        </mxCell>
        <mxCell id="78961159f06e98e8-96" value="&lt;u style=&quot;font-size: 14px; text-align: center;&quot;&gt;Invoice_ID&amp;nbsp;&lt;/u&gt;: int (PK)" style="text;html=1;strokeColor=#6F0000;fillColor=#a20025;align=left;verticalAlign=top;spacingLeft=4;spacingRight=4;whiteSpace=wrap;overflow=hidden;rotatable=0;points=[[0,0.5],[1,0.5]];portConstraint=eastwest;fontSize=14;fontColor=#ffffff;" parent="78961159f06e98e8-95" vertex="1">
          <mxGeometry y="26" width="160" height="26" as="geometry" />
        </mxCell>
        <mxCell id="78961159f06e98e8-97" value="&lt;span style=&quot;font-size: 14px; text-align: center;&quot;&gt;Amount&lt;/span&gt;&amp;nbsp;: float" style="text;html=1;strokeColor=#6F0000;fillColor=#a20025;align=left;verticalAlign=top;spacingLeft=4;spacingRight=4;whiteSpace=wrap;overflow=hidden;rotatable=0;points=[[0,0.5],[1,0.5]];portConstraint=eastwest;fontSize=14;fontColor=#ffffff;" parent="78961159f06e98e8-95" vertex="1">
          <mxGeometry y="52" width="160" height="26" as="geometry" />
        </mxCell>
        <mxCell id="78961159f06e98e8-98" value="&lt;span style=&quot;font-size: 14px; text-align: center;&quot;&gt;Issue_date&amp;nbsp;&lt;/span&gt;: date" style="text;html=1;strokeColor=#6F0000;fillColor=#a20025;align=left;verticalAlign=top;spacingLeft=4;spacingRight=4;whiteSpace=wrap;overflow=hidden;rotatable=0;points=[[0,0.5],[1,0.5]];portConstraint=eastwest;fontSize=14;fontColor=#ffffff;" parent="78961159f06e98e8-95" vertex="1">
          <mxGeometry y="78" width="160" height="26" as="geometry" />
        </mxCell>
        <mxCell id="78961159f06e98e8-102" value="&lt;span style=&quot;font-size: 14px; text-align: center;&quot;&gt;Due_date&amp;nbsp;&lt;/span&gt;: date" style="text;html=1;strokeColor=#6F0000;fillColor=#a20025;align=left;verticalAlign=top;spacingLeft=4;spacingRight=4;whiteSpace=wrap;overflow=hidden;rotatable=0;points=[[0,0.5],[1,0.5]];portConstraint=eastwest;fontSize=14;fontColor=#ffffff;" parent="78961159f06e98e8-95" vertex="1">
          <mxGeometry y="104" width="160" height="26" as="geometry" />
        </mxCell>
        <mxCell id="78961159f06e98e8-104" value="&lt;span style=&quot;font-size: 14px; text-align: center;&quot;&gt;Status&amp;nbsp;&lt;/span&gt;: varchar" style="text;html=1;strokeColor=#6F0000;fillColor=#a20025;align=left;verticalAlign=top;spacingLeft=4;spacingRight=4;whiteSpace=wrap;overflow=hidden;rotatable=0;points=[[0,0.5],[1,0.5]];portConstraint=eastwest;fontSize=14;fontColor=#ffffff;" parent="78961159f06e98e8-95" vertex="1">
          <mxGeometry y="130" width="160" height="40" as="geometry" />
        </mxCell>
        <mxCell id="daP8iGCR7o7oa7H0C6Kk-10" value="&lt;span style=&quot;text-align: center;&quot;&gt;Booking_ID&lt;/span&gt;&lt;span style=&quot;text-decoration-line: underline; text-align: center;&quot;&gt;&amp;nbsp;&lt;/span&gt;: int&amp;nbsp;&amp;nbsp;&lt;span style=&quot;text-align: center;&quot;&gt;(FK)&lt;/span&gt;" style="text;html=1;strokeColor=#6F0000;fillColor=#a20025;align=left;verticalAlign=top;spacingLeft=4;spacingRight=4;whiteSpace=wrap;overflow=hidden;rotatable=0;points=[[0,0.5],[1,0.5]];portConstraint=eastwest;fontSize=14;fontColor=#ffffff;" parent="78961159f06e98e8-95" vertex="1">
          <mxGeometry y="170" width="160" height="26" as="geometry" />
        </mxCell>
        <mxCell id="78961159f06e98e8-108" value="Amenity" style="swimlane;html=1;fontStyle=1;align=center;verticalAlign=top;childLayout=stackLayout;horizontal=1;startSize=26;horizontalStack=0;resizeParent=1;resizeLast=0;collapsible=1;marginBottom=0;swimlaneFillColor=#ffffff;rounded=0;shadow=0;comic=0;labelBackgroundColor=none;strokeWidth=1;fillColor=#a20025;fontFamily=Verdana;fontSize=14;strokeColor=#6F0000;fontColor=#ffffff;" parent="1" vertex="1">
          <mxGeometry x="50" y="-605" width="160" height="180" as="geometry" />
        </mxCell>
        <mxCell id="78961159f06e98e8-109" value="&lt;span style=&quot;font-size: 14px; text-align: center;&quot;&gt;&lt;u&gt;Amenity_ID&amp;nbsp;&lt;/u&gt;:&amp;nbsp;&lt;/span&gt;int (PK)" style="text;html=1;strokeColor=#6F0000;fillColor=#a20025;align=left;verticalAlign=top;spacingLeft=4;spacingRight=4;whiteSpace=wrap;overflow=hidden;rotatable=0;points=[[0,0.5],[1,0.5]];portConstraint=eastwest;fontSize=14;fontColor=#ffffff;" parent="78961159f06e98e8-108" vertex="1">
          <mxGeometry y="26" width="160" height="26" as="geometry" />
        </mxCell>
        <mxCell id="78961159f06e98e8-110" value="&lt;span style=&quot;font-size: 14px; text-align: center;&quot;&gt;Name&amp;nbsp;&lt;/span&gt;: varchar" style="text;html=1;strokeColor=#6F0000;fillColor=#a20025;align=left;verticalAlign=top;spacingLeft=4;spacingRight=4;whiteSpace=wrap;overflow=hidden;rotatable=0;points=[[0,0.5],[1,0.5]];portConstraint=eastwest;fontSize=14;fontColor=#ffffff;" parent="78961159f06e98e8-108" vertex="1">
          <mxGeometry y="52" width="160" height="26" as="geometry" />
        </mxCell>
        <mxCell id="78961159f06e98e8-117" value="&lt;span style=&quot;font-size: 14px; text-align: center;&quot;&gt;Description :&lt;/span&gt;&amp;nbsp;varchar" style="text;html=1;strokeColor=#6F0000;fillColor=#a20025;align=left;verticalAlign=top;spacingLeft=4;spacingRight=4;whiteSpace=wrap;overflow=hidden;rotatable=0;points=[[0,0.5],[1,0.5]];portConstraint=eastwest;fontSize=14;fontColor=#ffffff;" parent="78961159f06e98e8-108" vertex="1">
          <mxGeometry y="78" width="160" height="32" as="geometry" />
        </mxCell>
        <mxCell id="AnVdaM48TsKzXqkaSUUS-22" value="&lt;u&gt;&lt;span style=&quot;text-align: center; font-size: 14px;&quot;&gt;Hotel _ID&lt;/span&gt;:&lt;/u&gt;&amp;nbsp;int&amp;nbsp;&lt;span style=&quot;text-align: center;&quot;&gt;(FK)&lt;/span&gt;" style="text;html=1;strokeColor=#6F0000;fillColor=#a20025;align=left;verticalAlign=top;spacingLeft=4;spacingRight=4;whiteSpace=wrap;overflow=hidden;rotatable=0;points=[[0,0.5],[1,0.5]];portConstraint=eastwest;fontSize=14;fontColor=#ffffff;" parent="78961159f06e98e8-108" vertex="1">
          <mxGeometry y="110" width="160" height="30" as="geometry" />
        </mxCell>
        <mxCell id="daP8iGCR7o7oa7H0C6Kk-8" value="&lt;span style=&quot;text-align: center; font-size: 14px;&quot;&gt;&lt;u&gt;Room _ID&lt;/u&gt;&lt;/span&gt;: int&amp;nbsp;&lt;span style=&quot;text-align: center;&quot;&gt;(FK)&lt;/span&gt;" style="text;html=1;strokeColor=#6F0000;fillColor=#a20025;align=left;verticalAlign=top;spacingLeft=4;spacingRight=4;whiteSpace=wrap;overflow=hidden;rotatable=0;points=[[0,0.5],[1,0.5]];portConstraint=eastwest;fontSize=14;fontColor=#ffffff;" parent="78961159f06e98e8-108" vertex="1">
          <mxGeometry y="140" width="160" height="26" as="geometry" />
        </mxCell>
        <mxCell id="AnVdaM48TsKzXqkaSUUS-27" style="edgeStyle=orthogonalEdgeStyle;rounded=0;orthogonalLoop=1;jettySize=auto;html=1;exitX=0;exitY=0.5;exitDx=0;exitDy=0;fillColor=#a20025;strokeColor=#6F0000;" parent="1" source="AnVdaM48TsKzXqkaSUUS-22" target="78961159f06e98e8-21" edge="1">
          <mxGeometry relative="1" as="geometry" />
        </mxCell>
        <mxCell id="AnVdaM48TsKzXqkaSUUS-146" value="&lt;span style=&quot;font-family: Helvetica; text-wrap: wrap;&quot;&gt;&lt;font style=&quot;font-size: 12px;&quot;&gt;Reservation_Cancellation&lt;/font&gt;&lt;/span&gt;" style="swimlane;html=1;fontStyle=1;align=center;verticalAlign=top;childLayout=stackLayout;horizontal=1;startSize=26;horizontalStack=0;resizeParent=1;resizeLast=0;collapsible=1;marginBottom=0;swimlaneFillColor=#ffffff;rounded=0;shadow=0;comic=0;labelBackgroundColor=none;strokeWidth=1;fillColor=#a20025;fontFamily=Verdana;fontSize=14;strokeColor=#6F0000;fontColor=#ffffff;" parent="1" vertex="1">
          <mxGeometry x="1190" y="318" width="180" height="156" as="geometry" />
        </mxCell>
        <mxCell id="AnVdaM48TsKzXqkaSUUS-147" value="&lt;u style=&quot;font-size: 14px; text-align: center;&quot;&gt;Cancellation_ID&amp;nbsp;&lt;/u&gt;: int (PK)" style="text;html=1;strokeColor=#6F0000;fillColor=#a20025;align=left;verticalAlign=top;spacingLeft=4;spacingRight=4;whiteSpace=wrap;overflow=hidden;rotatable=0;points=[[0,0.5],[1,0.5]];portConstraint=eastwest;fontSize=14;fontColor=#ffffff;" parent="AnVdaM48TsKzXqkaSUUS-146" vertex="1">
          <mxGeometry y="26" width="180" height="26" as="geometry" />
        </mxCell>
        <mxCell id="AnVdaM48TsKzXqkaSUUS-152" value="&lt;span style=&quot;text-align: center;&quot;&gt;Booking_ID&lt;/span&gt;&lt;span style=&quot;text-decoration-line: underline; text-align: center;&quot;&gt;&amp;nbsp;&lt;/span&gt;: int&amp;nbsp;&lt;span style=&quot;text-align: center;&quot;&gt;(FK)&lt;/span&gt;" style="text;html=1;strokeColor=#6F0000;fillColor=#a20025;align=left;verticalAlign=top;spacingLeft=4;spacingRight=4;whiteSpace=wrap;overflow=hidden;rotatable=0;points=[[0,0.5],[1,0.5]];portConstraint=eastwest;fontSize=14;fontColor=#ffffff;" parent="AnVdaM48TsKzXqkaSUUS-146" vertex="1">
          <mxGeometry y="52" width="180" height="26" as="geometry" />
        </mxCell>
        <mxCell id="AnVdaM48TsKzXqkaSUUS-148" value="&lt;span style=&quot;font-size: 14px; text-align: center;&quot;&gt;Reason&amp;nbsp;&lt;/span&gt;&amp;nbsp;: varchar" style="text;html=1;strokeColor=#6F0000;fillColor=#a20025;align=left;verticalAlign=top;spacingLeft=4;spacingRight=4;whiteSpace=wrap;overflow=hidden;rotatable=0;points=[[0,0.5],[1,0.5]];portConstraint=eastwest;fontSize=14;fontColor=#ffffff;" parent="AnVdaM48TsKzXqkaSUUS-146" vertex="1">
          <mxGeometry y="78" width="180" height="26" as="geometry" />
        </mxCell>
        <mxCell id="AnVdaM48TsKzXqkaSUUS-149" value="&lt;span style=&quot;font-size: 14px; text-align: center;&quot;&gt;Cancellatioan_date&amp;nbsp;&lt;/span&gt;&lt;span style=&quot;font-size: 14px; text-align: center;&quot;&gt;&amp;nbsp;&lt;/span&gt;: date" style="text;html=1;strokeColor=#6F0000;fillColor=#a20025;align=left;verticalAlign=top;spacingLeft=4;spacingRight=4;whiteSpace=wrap;overflow=hidden;rotatable=0;points=[[0,0.5],[1,0.5]];portConstraint=eastwest;fontSize=14;fontColor=#ffffff;" parent="AnVdaM48TsKzXqkaSUUS-146" vertex="1">
          <mxGeometry y="104" width="180" height="26" as="geometry" />
        </mxCell>
        <mxCell id="AnVdaM48TsKzXqkaSUUS-150" value="&lt;span style=&quot;font-size: 14px; text-align: center;&quot;&gt;Refund_amount&lt;/span&gt;&lt;span style=&quot;font-size: 14px; text-align: center;&quot;&gt;&amp;nbsp;&lt;/span&gt;: float" style="text;html=1;strokeColor=#6F0000;fillColor=#a20025;align=left;verticalAlign=top;spacingLeft=4;spacingRight=4;whiteSpace=wrap;overflow=hidden;rotatable=0;points=[[0,0.5],[1,0.5]];portConstraint=eastwest;fontSize=14;fontColor=#ffffff;" parent="AnVdaM48TsKzXqkaSUUS-146" vertex="1">
          <mxGeometry y="130" width="180" height="26" as="geometry" />
        </mxCell>
        <mxCell id="AnVdaM48TsKzXqkaSUUS-153" style="edgeStyle=orthogonalEdgeStyle;rounded=0;orthogonalLoop=1;jettySize=auto;html=1;entryX=1;entryY=0.5;entryDx=0;entryDy=0;fillColor=#a20025;strokeColor=#6F0000;" parent="1" source="AnVdaM48TsKzXqkaSUUS-152" target="78961159f06e98e8-83" edge="1">
          <mxGeometry relative="1" as="geometry" />
        </mxCell>
        <mxCell id="xuSP38dfbPnXMIdWxUSy-1" value="User" style="swimlane;html=1;fontStyle=1;align=center;verticalAlign=top;childLayout=stackLayout;horizontal=1;startSize=26;horizontalStack=0;resizeParent=1;resizeLast=0;collapsible=1;marginBottom=0;swimlaneFillColor=#ffffff;rounded=0;shadow=0;comic=0;labelBackgroundColor=none;strokeWidth=1;fillColor=#a20025;fontFamily=Verdana;fontSize=14;strokeColor=#6F0000;fontColor=#ffffff;" parent="1" vertex="1">
          <mxGeometry x="1050" y="-470" width="200" height="210" as="geometry" />
        </mxCell>
        <mxCell id="xuSP38dfbPnXMIdWxUSy-2" value="&lt;span style=&quot;font-size: 14px; text-align: center; text-decoration-line: underline;&quot;&gt;User_ID&lt;/span&gt;&amp;nbsp;: int (PK)" style="text;html=1;strokeColor=#6F0000;fillColor=#a20025;align=left;verticalAlign=top;spacingLeft=4;spacingRight=4;whiteSpace=wrap;overflow=hidden;rotatable=0;points=[[0,0.5],[1,0.5]];portConstraint=eastwest;fontSize=14;fontColor=#ffffff;" parent="xuSP38dfbPnXMIdWxUSy-1" vertex="1">
          <mxGeometry y="26" width="200" height="26" as="geometry" />
        </mxCell>
        <mxCell id="xuSP38dfbPnXMIdWxUSy-3" value="&lt;span style=&quot;font-size: 14px; text-align: center;&quot;&gt;User_Name :&lt;/span&gt;&amp;nbsp;varchar" style="text;html=1;strokeColor=#6F0000;fillColor=#a20025;align=left;verticalAlign=top;spacingLeft=4;spacingRight=4;whiteSpace=wrap;overflow=hidden;rotatable=0;points=[[0,0.5],[1,0.5]];portConstraint=eastwest;fontSize=14;fontColor=#ffffff;" parent="xuSP38dfbPnXMIdWxUSy-1" vertex="1">
          <mxGeometry y="52" width="200" height="26" as="geometry" />
        </mxCell>
        <mxCell id="xuSP38dfbPnXMIdWxUSy-4" value="&lt;div style=&quot;text-align: center;&quot;&gt;User_Role&amp;nbsp; &amp;nbsp;:&amp;nbsp; varchar&lt;/div&gt;" style="text;html=1;strokeColor=#6F0000;fillColor=#a20025;align=left;verticalAlign=top;spacingLeft=4;spacingRight=4;whiteSpace=wrap;overflow=hidden;rotatable=0;points=[[0,0.5],[1,0.5]];portConstraint=eastwest;fontSize=14;fontColor=#ffffff;" parent="xuSP38dfbPnXMIdWxUSy-1" vertex="1">
          <mxGeometry y="78" width="200" height="26" as="geometry" />
        </mxCell>
        <mxCell id="xuSP38dfbPnXMIdWxUSy-5" value="&lt;span style=&quot;font-size: 14px; text-align: center;&quot;&gt;Emaile&lt;/span&gt;:&amp;nbsp; varchar" style="text;html=1;strokeColor=#6F0000;fillColor=#a20025;align=left;verticalAlign=top;spacingLeft=4;spacingRight=4;whiteSpace=wrap;overflow=hidden;rotatable=0;points=[[0,0.5],[1,0.5]];portConstraint=eastwest;fontSize=14;fontColor=#ffffff;" parent="xuSP38dfbPnXMIdWxUSy-1" vertex="1">
          <mxGeometry y="104" width="200" height="30" as="geometry" />
        </mxCell>
        <mxCell id="xuSP38dfbPnXMIdWxUSy-6" value="&lt;span style=&quot;font-size: 14px; text-align: center;&quot;&gt;Password&amp;nbsp;&lt;/span&gt;: varchar&lt;div&gt;&lt;br&gt;&lt;/div&gt;&lt;div&gt;Date_joined: Date&lt;/div&gt;" style="text;html=1;strokeColor=#6F0000;fillColor=#a20025;align=left;verticalAlign=top;spacingLeft=4;spacingRight=4;whiteSpace=wrap;overflow=hidden;rotatable=0;points=[[0,0.5],[1,0.5]];portConstraint=eastwest;fontSize=14;fontColor=#ffffff;" parent="xuSP38dfbPnXMIdWxUSy-1" vertex="1">
          <mxGeometry y="134" width="200" height="76" as="geometry" />
        </mxCell>
        <mxCell id="xuSP38dfbPnXMIdWxUSy-51" style="edgeStyle=orthogonalEdgeStyle;rounded=0;orthogonalLoop=1;jettySize=auto;html=1;exitX=0.5;exitY=0;exitDx=0;exitDy=0;fillColor=#a20025;strokeColor=#6F0000;" parent="1" source="xuSP38dfbPnXMIdWxUSy-11" edge="1">
          <mxGeometry relative="1" as="geometry">
            <mxPoint x="1140" y="-260" as="targetPoint" />
          </mxGeometry>
        </mxCell>
        <mxCell id="xuSP38dfbPnXMIdWxUSy-11" value="User_Phone" style="swimlane;html=1;fontStyle=1;align=center;verticalAlign=top;childLayout=stackLayout;horizontal=1;startSize=26;horizontalStack=0;resizeParent=1;resizeLast=0;collapsible=1;marginBottom=0;swimlaneFillColor=#ffffff;rounded=0;shadow=0;comic=0;labelBackgroundColor=none;strokeWidth=1;fillColor=#a20025;fontFamily=Verdana;fontSize=14;strokeColor=#6F0000;fontColor=#ffffff;" parent="1" vertex="1">
          <mxGeometry x="1040" y="-180" width="200" height="130" as="geometry" />
        </mxCell>
        <mxCell id="xuSP38dfbPnXMIdWxUSy-12" value="&lt;span style=&quot;font-size: 14px; text-align: center; text-decoration-line: underline;&quot;&gt;User_ID&lt;/span&gt;&amp;nbsp;: int (FK)" style="text;html=1;strokeColor=#6F0000;fillColor=#a20025;align=left;verticalAlign=top;spacingLeft=4;spacingRight=4;whiteSpace=wrap;overflow=hidden;rotatable=0;points=[[0,0.5],[1,0.5]];portConstraint=eastwest;fontSize=14;fontColor=#ffffff;" parent="xuSP38dfbPnXMIdWxUSy-11" vertex="1">
          <mxGeometry y="26" width="200" height="26" as="geometry" />
        </mxCell>
        <mxCell id="xuSP38dfbPnXMIdWxUSy-13" value="&lt;span style=&quot;font-size: 14px; text-align: center;&quot;&gt;Phone :&lt;/span&gt;&amp;nbsp;char" style="text;html=1;strokeColor=#6F0000;fillColor=#a20025;align=left;verticalAlign=top;spacingLeft=4;spacingRight=4;whiteSpace=wrap;overflow=hidden;rotatable=0;points=[[0,0.5],[1,0.5]];portConstraint=eastwest;fontSize=14;fontColor=#ffffff;" parent="xuSP38dfbPnXMIdWxUSy-11" vertex="1">
          <mxGeometry y="52" width="200" height="26" as="geometry" />
        </mxCell>
        <mxCell id="xuSP38dfbPnXMIdWxUSy-44" value="&lt;div style=&quot;text-align: center;&quot;&gt;PK (User_id,Phone)&lt;/div&gt;" style="text;html=1;strokeColor=#6F0000;fillColor=#a20025;align=left;verticalAlign=top;spacingLeft=4;spacingRight=4;whiteSpace=wrap;overflow=hidden;rotatable=0;points=[[0,0.5],[1,0.5]];portConstraint=eastwest;fontSize=14;fontColor=#ffffff;" parent="xuSP38dfbPnXMIdWxUSy-11" vertex="1">
          <mxGeometry y="78" width="200" height="26" as="geometry" />
        </mxCell>
        <mxCell id="xuSP38dfbPnXMIdWxUSy-18" value="Feedback" style="swimlane;html=1;fontStyle=1;align=center;verticalAlign=top;childLayout=stackLayout;horizontal=1;startSize=26;horizontalStack=0;resizeParent=1;resizeLast=0;collapsible=1;marginBottom=0;swimlaneFillColor=#ffffff;rounded=0;shadow=0;comic=0;labelBackgroundColor=none;strokeWidth=1;fillColor=#a20025;fontFamily=Verdana;fontSize=14;strokeColor=#6F0000;fontColor=#ffffff;" parent="1" vertex="1">
          <mxGeometry x="1420" y="-470" width="200" height="240" as="geometry" />
        </mxCell>
        <mxCell id="xuSP38dfbPnXMIdWxUSy-19" value="&lt;span style=&quot;font-size: 14px; text-align: center; text-decoration-line: underline;&quot;&gt;Feedback_ID&lt;/span&gt;&amp;nbsp;: int (PK)" style="text;html=1;strokeColor=#6F0000;fillColor=#a20025;align=left;verticalAlign=top;spacingLeft=4;spacingRight=4;whiteSpace=wrap;overflow=hidden;rotatable=0;points=[[0,0.5],[1,0.5]];portConstraint=eastwest;fontSize=14;fontColor=#ffffff;" parent="xuSP38dfbPnXMIdWxUSy-18" vertex="1">
          <mxGeometry y="26" width="200" height="26" as="geometry" />
        </mxCell>
        <mxCell id="xuSP38dfbPnXMIdWxUSy-20" value="&lt;span style=&quot;font-size: 14px; text-align: center;&quot;&gt;Subject :&lt;/span&gt;&amp;nbsp;varchar" style="text;html=1;strokeColor=#6F0000;fillColor=#a20025;align=left;verticalAlign=top;spacingLeft=4;spacingRight=4;whiteSpace=wrap;overflow=hidden;rotatable=0;points=[[0,0.5],[1,0.5]];portConstraint=eastwest;fontSize=14;fontColor=#ffffff;" parent="xuSP38dfbPnXMIdWxUSy-18" vertex="1">
          <mxGeometry y="52" width="200" height="26" as="geometry" />
        </mxCell>
        <mxCell id="xuSP38dfbPnXMIdWxUSy-21" value="&lt;div style=&quot;text-align: center;&quot;&gt;Submission_Date : Date&lt;/div&gt;" style="text;html=1;strokeColor=#6F0000;fillColor=#a20025;align=left;verticalAlign=top;spacingLeft=4;spacingRight=4;whiteSpace=wrap;overflow=hidden;rotatable=0;points=[[0,0.5],[1,0.5]];portConstraint=eastwest;fontSize=14;fontColor=#ffffff;" parent="xuSP38dfbPnXMIdWxUSy-18" vertex="1">
          <mxGeometry y="78" width="200" height="26" as="geometry" />
        </mxCell>
        <mxCell id="xuSP38dfbPnXMIdWxUSy-22" value="&lt;div style=&quot;text-align: center;&quot;&gt;&lt;span style=&quot;background-color: initial;&quot;&gt;Comment:&amp;nbsp; varchar&lt;/span&gt;&lt;/div&gt;" style="text;html=1;strokeColor=#6F0000;fillColor=#a20025;align=left;verticalAlign=top;spacingLeft=4;spacingRight=4;whiteSpace=wrap;overflow=hidden;rotatable=0;points=[[0,0.5],[1,0.5]];portConstraint=eastwest;fontSize=14;fontColor=#ffffff;" parent="xuSP38dfbPnXMIdWxUSy-18" vertex="1">
          <mxGeometry y="104" width="200" height="30" as="geometry" />
        </mxCell>
        <mxCell id="xuSP38dfbPnXMIdWxUSy-23" value="&lt;span style=&quot;font-size: 14px; text-align: center;&quot;&gt;Rating&amp;nbsp;&lt;/span&gt;: int&lt;div&gt;&lt;br&gt;&lt;/div&gt;&lt;div&gt;Hotel_id: int (FK)&lt;/div&gt;&lt;div&gt;&lt;br&gt;&lt;/div&gt;&lt;div&gt;User_id: int (FK)&lt;br&gt;&lt;/div&gt;" style="text;html=1;strokeColor=#6F0000;fillColor=#a20025;align=left;verticalAlign=top;spacingLeft=4;spacingRight=4;whiteSpace=wrap;overflow=hidden;rotatable=0;points=[[0,0.5],[1,0.5]];portConstraint=eastwest;fontSize=14;fontColor=#ffffff;" parent="xuSP38dfbPnXMIdWxUSy-18" vertex="1">
          <mxGeometry y="134" width="200" height="106" as="geometry" />
        </mxCell>
        <mxCell id="xuSP38dfbPnXMIdWxUSy-30" value="Promotion&amp;nbsp;" style="swimlane;html=1;fontStyle=1;align=center;verticalAlign=top;childLayout=stackLayout;horizontal=1;startSize=26;horizontalStack=0;resizeParent=1;resizeLast=0;collapsible=1;marginBottom=0;swimlaneFillColor=#ffffff;rounded=0;shadow=0;comic=0;labelBackgroundColor=none;strokeWidth=1;fillColor=#a20025;fontFamily=Verdana;fontSize=14;strokeColor=#6F0000;fontColor=#ffffff;" parent="1" vertex="1">
          <mxGeometry x="1330" y="-153" width="200" height="270" as="geometry" />
        </mxCell>
        <mxCell id="xuSP38dfbPnXMIdWxUSy-31" value="&lt;span style=&quot;font-size: 14px; text-align: center; text-decoration-line: underline;&quot;&gt;Promotion_ID&lt;/span&gt;&amp;nbsp;: int (PK)" style="text;html=1;strokeColor=#6F0000;fillColor=#a20025;align=left;verticalAlign=top;spacingLeft=4;spacingRight=4;whiteSpace=wrap;overflow=hidden;rotatable=0;points=[[0,0.5],[1,0.5]];portConstraint=eastwest;fontSize=14;fontColor=#ffffff;" parent="xuSP38dfbPnXMIdWxUSy-30" vertex="1">
          <mxGeometry y="26" width="200" height="26" as="geometry" />
        </mxCell>
        <mxCell id="xuSP38dfbPnXMIdWxUSy-32" value="&lt;span style=&quot;font-size: 14px; text-align: center;&quot;&gt;Discount_Percentag :&lt;/span&gt;&amp;nbsp;int" style="text;html=1;strokeColor=#6F0000;fillColor=#a20025;align=left;verticalAlign=top;spacingLeft=4;spacingRight=4;whiteSpace=wrap;overflow=hidden;rotatable=0;points=[[0,0.5],[1,0.5]];portConstraint=eastwest;fontSize=14;fontColor=#ffffff;" parent="xuSP38dfbPnXMIdWxUSy-30" vertex="1">
          <mxGeometry y="52" width="200" height="26" as="geometry" />
        </mxCell>
        <mxCell id="xuSP38dfbPnXMIdWxUSy-33" value="&lt;div style=&quot;text-align: center;&quot;&gt;Title&amp;nbsp; &amp;nbsp;:&amp;nbsp; varchar&lt;/div&gt;" style="text;html=1;strokeColor=#6F0000;fillColor=#a20025;align=left;verticalAlign=top;spacingLeft=4;spacingRight=4;whiteSpace=wrap;overflow=hidden;rotatable=0;points=[[0,0.5],[1,0.5]];portConstraint=eastwest;fontSize=14;fontColor=#ffffff;" parent="xuSP38dfbPnXMIdWxUSy-30" vertex="1">
          <mxGeometry y="78" width="200" height="26" as="geometry" />
        </mxCell>
        <mxCell id="xuSP38dfbPnXMIdWxUSy-34" value="Start_Date: Date" style="text;html=1;strokeColor=#6F0000;fillColor=#a20025;align=left;verticalAlign=top;spacingLeft=4;spacingRight=4;whiteSpace=wrap;overflow=hidden;rotatable=0;points=[[0,0.5],[1,0.5]];portConstraint=eastwest;fontSize=14;fontColor=#ffffff;" parent="xuSP38dfbPnXMIdWxUSy-30" vertex="1">
          <mxGeometry y="104" width="200" height="30" as="geometry" />
        </mxCell>
        <mxCell id="xuSP38dfbPnXMIdWxUSy-35" value="&lt;div&gt;End_Date: Date&lt;br&gt;&lt;/div&gt;&lt;div&gt;&lt;br&gt;&lt;/div&gt;&lt;div&gt;Date_joined: Date&lt;/div&gt;&lt;div&gt;&lt;br&gt;&lt;/div&gt;&lt;div&gt;Description :varchar&amp;nbsp;&lt;/div&gt;&lt;div&gt;&lt;br&gt;&lt;/div&gt;&lt;div&gt;Hotel_id :int (FK)&lt;/div&gt;" style="text;html=1;strokeColor=#6F0000;fillColor=#a20025;align=left;verticalAlign=top;spacingLeft=4;spacingRight=4;whiteSpace=wrap;overflow=hidden;rotatable=0;points=[[0,0.5],[1,0.5]];portConstraint=eastwest;fontSize=14;fontColor=#ffffff;" parent="xuSP38dfbPnXMIdWxUSy-30" vertex="1">
          <mxGeometry y="134" width="200" height="136" as="geometry" />
        </mxCell>
        <mxCell id="xuSP38dfbPnXMIdWxUSy-53" style="edgeStyle=orthogonalEdgeStyle;rounded=0;orthogonalLoop=1;jettySize=auto;html=1;exitX=0;exitY=0.5;exitDx=0;exitDy=0;entryX=1;entryY=0.5;entryDx=0;entryDy=0;fillColor=#a20025;strokeColor=#6F0000;" parent="1" source="xuSP38dfbPnXMIdWxUSy-22" target="xuSP38dfbPnXMIdWxUSy-5" edge="1">
          <mxGeometry relative="1" as="geometry" />
        </mxCell>
        <mxCell id="xuSP38dfbPnXMIdWxUSy-55" style="edgeStyle=orthogonalEdgeStyle;rounded=0;orthogonalLoop=1;jettySize=auto;html=1;exitX=0.25;exitY=0;exitDx=0;exitDy=0;fillColor=#a20025;strokeColor=#6F0000;" parent="1" source="xuSP38dfbPnXMIdWxUSy-18" edge="1">
          <mxGeometry relative="1" as="geometry">
            <mxPoint x="421" y="-200" as="targetPoint" />
            <Array as="points">
              <mxPoint x="1470" y="-490" />
              <mxPoint x="930" y="-490" />
              <mxPoint x="930" y="-320" />
              <mxPoint x="421" y="-320" />
            </Array>
          </mxGeometry>
        </mxCell>
        <mxCell id="xuSP38dfbPnXMIdWxUSy-61" style="edgeStyle=orthogonalEdgeStyle;rounded=0;orthogonalLoop=1;jettySize=auto;html=1;exitX=0.5;exitY=0;exitDx=0;exitDy=0;entryX=0.014;entryY=0.847;entryDx=0;entryDy=0;entryPerimeter=0;fillColor=#a20025;strokeColor=#6F0000;" parent="1" source="78961159f06e98e8-82" target="xuSP38dfbPnXMIdWxUSy-6" edge="1">
          <mxGeometry relative="1" as="geometry" />
        </mxCell>
        <mxCell id="kxPFsqWt2dAMGr-T0Auc-13" value="Hotel_Phones" style="swimlane;html=1;fontStyle=1;align=center;verticalAlign=top;childLayout=stackLayout;horizontal=1;startSize=26;horizontalStack=0;resizeParent=1;resizeLast=0;collapsible=1;marginBottom=0;swimlaneFillColor=#ffffff;rounded=0;shadow=0;comic=0;labelBackgroundColor=none;strokeWidth=1;fillColor=#a20025;fontFamily=Verdana;fontSize=14;strokeColor=#6F0000;fontColor=#ffffff;" parent="1" vertex="1">
          <mxGeometry x="-300" y="-470" width="200" height="130" as="geometry" />
        </mxCell>
        <mxCell id="kxPFsqWt2dAMGr-T0Auc-14" value="&lt;span style=&quot;font-size: 14px; text-align: center; text-decoration-line: underline;&quot;&gt;Hotel_ID&lt;/span&gt;&amp;nbsp;: int (FK)" style="text;html=1;strokeColor=#6F0000;fillColor=#a20025;align=left;verticalAlign=top;spacingLeft=4;spacingRight=4;whiteSpace=wrap;overflow=hidden;rotatable=0;points=[[0,0.5],[1,0.5]];portConstraint=eastwest;fontSize=14;fontColor=#ffffff;" parent="kxPFsqWt2dAMGr-T0Auc-13" vertex="1">
          <mxGeometry y="26" width="200" height="26" as="geometry" />
        </mxCell>
        <mxCell id="kxPFsqWt2dAMGr-T0Auc-15" value="&lt;span style=&quot;font-size: 14px; text-align: center;&quot;&gt;Phone :&lt;/span&gt;&amp;nbsp;char" style="text;html=1;strokeColor=#6F0000;fillColor=#a20025;align=left;verticalAlign=top;spacingLeft=4;spacingRight=4;whiteSpace=wrap;overflow=hidden;rotatable=0;points=[[0,0.5],[1,0.5]];portConstraint=eastwest;fontSize=14;fontColor=#ffffff;" parent="kxPFsqWt2dAMGr-T0Auc-13" vertex="1">
          <mxGeometry y="52" width="200" height="26" as="geometry" />
        </mxCell>
        <mxCell id="kxPFsqWt2dAMGr-T0Auc-16" value="&lt;div style=&quot;text-align: center;&quot;&gt;PK (Hotel_id,Phone)&lt;/div&gt;" style="text;html=1;strokeColor=#6F0000;fillColor=#a20025;align=left;verticalAlign=top;spacingLeft=4;spacingRight=4;whiteSpace=wrap;overflow=hidden;rotatable=0;points=[[0,0.5],[1,0.5]];portConstraint=eastwest;fontSize=14;fontColor=#ffffff;" parent="kxPFsqWt2dAMGr-T0Auc-13" vertex="1">
          <mxGeometry y="78" width="200" height="26" as="geometry" />
        </mxCell>
        <mxCell id="kxPFsqWt2dAMGr-T0Auc-17" style="edgeStyle=orthogonalEdgeStyle;rounded=0;orthogonalLoop=1;jettySize=auto;html=1;fillColor=#a20025;strokeColor=#6F0000;" parent="1" edge="1">
          <mxGeometry relative="1" as="geometry">
            <mxPoint x="-100" y="-404.9333333333334" as="sourcePoint" />
            <mxPoint x="360" y="-190" as="targetPoint" />
          </mxGeometry>
        </mxCell>
        <mxCell id="daP8iGCR7o7oa7H0C6Kk-2" style="edgeStyle=orthogonalEdgeStyle;rounded=0;orthogonalLoop=1;jettySize=auto;html=1;exitX=1;exitY=0.5;exitDx=0;exitDy=0;entryX=0;entryY=0.5;entryDx=0;entryDy=0;fillColor=#a20025;strokeColor=#6F0000;" parent="1" source="78961159f06e98e8-75" target="78961159f06e98e8-33" edge="1">
          <mxGeometry relative="1" as="geometry" />
        </mxCell>
        <mxCell id="daP8iGCR7o7oa7H0C6Kk-6" style="edgeStyle=orthogonalEdgeStyle;rounded=0;orthogonalLoop=1;jettySize=auto;html=1;exitX=1;exitY=0.5;exitDx=0;exitDy=0;entryX=0.02;entryY=0.078;entryDx=0;entryDy=0;entryPerimeter=0;fillColor=#a20025;strokeColor=#6F0000;" parent="1" source="78961159f06e98e8-58" target="78961159f06e98e8-17" edge="1">
          <mxGeometry relative="1" as="geometry" />
        </mxCell>
        <mxCell id="daP8iGCR7o7oa7H0C6Kk-9" style="edgeStyle=orthogonalEdgeStyle;rounded=0;orthogonalLoop=1;jettySize=auto;html=1;exitX=0;exitY=0.5;exitDx=0;exitDy=0;entryX=1;entryY=0.5;entryDx=0;entryDy=0;fillColor=#a20025;strokeColor=#6F0000;" parent="1" source="78961159f06e98e8-117" target="78961159f06e98e8-71" edge="1">
          <mxGeometry relative="1" as="geometry" />
        </mxCell>
        <mxCell id="daP8iGCR7o7oa7H0C6Kk-11" style="edgeStyle=orthogonalEdgeStyle;rounded=0;orthogonalLoop=1;jettySize=auto;html=1;exitX=0;exitY=0.5;exitDx=0;exitDy=0;entryX=1;entryY=0.5;entryDx=0;entryDy=0;fillColor=#a20025;strokeColor=#6F0000;" parent="1" source="78961159f06e98e8-102" target="xuSP38dfbPnXMIdWxUSy-41" edge="1">
          <mxGeometry relative="1" as="geometry" />
        </mxCell>
        <mxCell id="daP8iGCR7o7oa7H0C6Kk-16" style="edgeStyle=orthogonalEdgeStyle;rounded=0;orthogonalLoop=1;jettySize=auto;html=1;exitX=0;exitY=0.5;exitDx=0;exitDy=0;entryX=0.75;entryY=1;entryDx=0;entryDy=0;fillColor=#a20025;strokeColor=#6F0000;" parent="1" source="78961159f06e98e8-83" target="78961159f06e98e8-69" edge="1">
          <mxGeometry relative="1" as="geometry" />
        </mxCell>
        <mxCell id="kKXYrfE0PBTw_4NPOHUE-1" style="edgeStyle=orthogonalEdgeStyle;rounded=0;orthogonalLoop=1;jettySize=auto;html=1;exitX=1;exitY=0.5;exitDx=0;exitDy=0;entryX=0;entryY=0.5;entryDx=0;entryDy=0;fillColor=#a20025;strokeColor=#6F0000;" parent="1" source="78961159f06e98e8-40" target="78961159f06e98e8-23" edge="1">
          <mxGeometry relative="1" as="geometry" />
        </mxCell>
        <mxCell id="kKXYrfE0PBTw_4NPOHUE-2" style="edgeStyle=orthogonalEdgeStyle;rounded=0;orthogonalLoop=1;jettySize=auto;html=1;exitX=0;exitY=0.5;exitDx=0;exitDy=0;entryX=1;entryY=0.5;entryDx=0;entryDy=0;fillColor=#a20025;strokeColor=#6F0000;" parent="1" source="xuSP38dfbPnXMIdWxUSy-35" target="78961159f06e98e8-23" edge="1">
          <mxGeometry relative="1" as="geometry" />
        </mxCell>
      </root>
    </mxGraphModel>
  </diagram>
  <diagram id="cATDqTf6Vsyv6wCS9CYx" name="Page-2">
    <mxGraphModel dx="1050" dy="564" grid="1" gridSize="10" guides="1" tooltips="1" connect="1" arrows="1" fold="1" page="1" pageScale="1" pageWidth="1169" pageHeight="827" math="0" shadow="0">
      <root>
        <mxCell id="0" />
        <mxCell id="1" parent="0" />
      </root>
    </mxGraphModel>
  </diagram>
</mxfile>
